<svg xmlns="http://www.w3.org/2000/svg" xmlns:xlink="http://www.w3.org/1999/xlink" version="1.1" width="256" height="256" viewBox="0 0 256 256" xml:space="preserve">
<desc>Created with Fabric.js 1.7.22</desc>
<defs>
</defs>
<g transform="translate(128 128) scale(0.72 0.72)" style="">
	<g style="stroke: none; stroke-width: 0; stroke-dasharray: none; stroke-linecap: butt; stroke-linejoin: miter; stroke-miterlimit: 10; fill: none; fill-rule: nonzero; opacity: 1;" transform="translate(-175.05 -175.05000000000004) scale(3.89 3.89)" >
	<path d="M 85.416 59.047 h 1.948 c 0.904 0 1.636 -0.732 1.636 -1.636 V 47.194 c 0 -0.401 -0.147 -0.788 -0.413 -1.087 L 78.397 34.645 c -0.31 -0.349 -0.755 -0.549 -1.223 -0.549 H 66.819 v 24.95 h 9.401" style="stroke: none; stroke-width: 1; stroke-dasharray: none; stroke-linecap: butt; stroke-linejoin: miter; stroke-miterlimit: 10; fill: rgb(255,206,84); fill-rule: nonzero; opacity: 1;" transform=" matrix(1 0 0 1 0 0) " stroke-linecap="round" />
	<path d="M 38.102 59.047 H 33.79 h -3.831 c -0.98 0 -1.775 -0.979 -1.775 -2.188 V 46.572 h 38.634 v 12.475 H 47.291" style="stroke: none; stroke-width: 1; stroke-dasharray: none; stroke-linecap: butt; stroke-linejoin: miter; stroke-miterlimit: 10; fill: rgb(255,206,84); fill-rule: nonzero; opacity: 1;" transform=" matrix(1 0 0 1 0 0) " stroke-linecap="round" />
	<circle cx="80.818" cy="58.818" r="4.598" style="stroke: none; stroke-width: 1; stroke-dasharray: none; stroke-linecap: butt; stroke-linejoin: miter; stroke-miterlimit: 10; fill: rgb(101,109,120); fill-rule: nonzero; opacity: 1;" transform="  matrix(1 0 0 1 0 0) "/>
	<circle cx="42.688" cy="58.818" r="4.598" style="stroke: none; stroke-width: 1; stroke-dasharray: none; stroke-linecap: butt; stroke-linejoin: miter; stroke-miterlimit: 10; fill: rgb(101,109,120); fill-rule: nonzero; opacity: 1;" transform="  matrix(1 0 0 1 0 0) "/>
	<path d="M 89 46.572 H 74.619 c -0.808 0 -1.463 -0.655 -1.463 -1.463 v -5.44 c 0 -0.808 0.655 -1.463 1.463 -1.463 h 6.944" style="stroke: none; stroke-width: 1; stroke-dasharray: none; stroke-linecap: butt; stroke-linejoin: miter; stroke-miterlimit: 10; fill: rgb(74,137,220); fill-rule: nonzero; opacity: 1;" transform=" matrix(1 0 0 1 0 0) " stroke-linecap="round" />
	<rect x="28.18" y="35.87" rx="0" ry="0" width="10.7" height="10.7" style="stroke: none; stroke-width: 1; stroke-dasharray: none; stroke-linecap: butt; stroke-linejoin: miter; stroke-miterlimit: 10; fill: rgb(234,176,129); fill-rule: nonzero; opacity: 1;" transform=" matrix(1 0 0 1 0 0) "/>
	<rect x="38.88" y="39.79" rx="0" ry="0" width="12.1" height="6.78" style="stroke: none; stroke-width: 1; stroke-dasharray: none; stroke-linecap: butt; stroke-linejoin: miter; stroke-miterlimit: 10; fill: rgb(234,176,129); fill-rule: nonzero; opacity: 1;" transform=" matrix(1 0 0 1 0 0) "/>
	<path d="M 87.364 60.047 h -1.948 c -0.553 0 -1 -0.447 -1 -1 s 0.447 -1 1 -1 h 1.948 c 0.351 0 0.636 -0.285 0.636 -0.636 V 47.193 c 0 -0.155 -0.058 -0.307 -0.161 -0.424 L 77.65 35.31 c -0.121 -0.136 -0.294 -0.214 -0.476 -0.214 h -9.356 v 22.951 h 8.401 c 0.553 0 1 0.447 1 1 s -0.447 1 -1 1 h -9.401 c -0.553 0 -1 -0.447 -1 -1 V 34.096 c 0 -0.552 0.447 -1 1 -1 h 10.356 c 0.753 0 1.471 0.323 1.971 0.885 l 10.188 11.46 C 89.764 45.927 90 46.549 90 47.193 v 10.218 C 90 58.864 88.817 60.047 87.364 60.047 z" style="stroke: none; stroke-width: 1; stroke-dasharray: none; stroke-linecap: butt; stroke-linejoin: miter; stroke-miterlimit: 10; fill: rgb(0,0,0); fill-rule: nonzero; opacity: 1;" transform=" matrix(1 0 0 1 0 0) " stroke-linecap="round" />
	<rect x="50.98" y="36.73" rx="0" ry="0" width="15.84" height="9.84" style="stroke: none; stroke-width: 1; stroke-dasharray: none; stroke-linecap: butt; stroke-linejoin: miter; stroke-miterlimit: 10; fill: rgb(234,176,129); fill-rule: nonzero; opacity: 1;" transform=" matrix(1 0 0 1 0 0) "/>
	<rect x="50.98" y="26.59" rx="0" ry="0" width="15.84" height="10.14" style="stroke: none; stroke-width: 1; stroke-dasharray: none; stroke-linecap: butt; stroke-linejoin: miter; stroke-miterlimit: 10; fill: rgb(234,176,129); fill-rule: nonzero; opacity: 1;" transform=" matrix(1 0 0 1 0 0) "/>
	<rect x="38.88" y="31.66" rx="0" ry="0" width="12.1" height="8.13" style="stroke: none; stroke-width: 1; stroke-dasharray: none; stroke-linecap: butt; stroke-linejoin: miter; stroke-miterlimit: 10; fill: rgb(234,176,129); fill-rule: nonzero; opacity: 1;" transform=" matrix(1 0 0 1 0 0) "/>
	<path d="M 66.818 60.047 H 47.291 c -0.553 0 -1 -0.447 -1 -1 s 0.447 -1 1 -1 h 18.527 V 47.571 H 29.185 v 9.288 c 0 0.7 0.408 1.188 0.774 1.188 h 8.143 c 0.552 0 1 0.447 1 1 s -0.448 1 -1 1 h -8.143 c -1.53 0 -2.774 -1.43 -2.774 -3.188 V 46.571 c 0 -0.553 0.448 -1 1 -1 h 38.634 c 0.553 0 1 0.447 1 1 v 12.476 C 67.818 59.6 67.371 60.047 66.818 60.047 z" style="stroke: none; stroke-width: 1; stroke-dasharray: none; stroke-linecap: butt; stroke-linejoin: miter; stroke-miterlimit: 10; fill: rgb(0,0,0); fill-rule: nonzero; opacity: 1;" transform=" matrix(1 0 0 1 0 0) " stroke-linecap="round" />
	<path d="M 80.817 64.412 c -3.087 0 -5.598 -2.511 -5.598 -5.598 s 2.511 -5.599 5.598 -5.599 s 5.599 2.512 5.599 5.599 S 83.904 64.412 80.817 64.412 z M 80.817 55.216 c -1.983 0 -3.598 1.614 -3.598 3.599 c 0 1.983 1.614 3.598 3.598 3.598 c 1.984 0 3.599 -1.614 3.599 -3.598 C 84.416 56.83 82.802 55.216 80.817 55.216 z" style="stroke: none; stroke-width: 1; stroke-dasharray: none; stroke-linecap: butt; stroke-linejoin: miter; stroke-miterlimit: 10; fill: rgb(0,0,0); fill-rule: nonzero; opacity: 1;" transform=" matrix(1 0 0 1 0 0) " stroke-linecap="round" />
	<path d="M 42.693 64.412 c -3.087 0 -5.598 -2.511 -5.598 -5.598 s 2.511 -5.599 5.598 -5.599 s 5.598 2.512 5.598 5.599 S 45.78 64.412 42.693 64.412 z M 42.693 55.216 c -1.984 0 -3.598 1.614 -3.598 3.599 c 0 1.983 1.614 3.598 3.598 3.598 s 3.598 -1.614 3.598 -3.598 C 46.291 56.83 44.677 55.216 42.693 55.216 z" style="stroke: none; stroke-width: 1; stroke-dasharray: none; stroke-linecap: butt; stroke-linejoin: miter; stroke-miterlimit: 10; fill: rgb(0,0,0); fill-rule: nonzero; opacity: 1;" transform=" matrix(1 0 0 1 0 0) " stroke-linecap="round" />
	<path d="M 89 47.571 H 74.619 c -1.358 0 -2.463 -1.104 -2.463 -2.462 v -5.44 c 0 -1.358 1.104 -2.463 2.463 -2.463 h 6.944 c 0.553 0 1 0.448 1 1 s -0.447 1 -1 1 h -6.944 c -0.255 0 -0.463 0.208 -0.463 0.463 v 5.44 c 0 0.255 0.208 0.462 0.463 0.462 H 89 c 0.553 0 1 0.447 1 1 S 89.553 47.571 89 47.571 z" style="stroke: none; stroke-width: 1; stroke-dasharray: none; stroke-linecap: butt; stroke-linejoin: miter; stroke-miterlimit: 10; fill: rgb(0,0,0); fill-rule: nonzero; opacity: 1;" transform=" matrix(1 0 0 1 0 0) " stroke-linecap="round" />
	<path d="M 21.207 50.694 H 8.615 c -0.552 0 -1 -0.447 -1 -1 s 0.448 -1 1 -1 h 12.592 c 0.552 0 1 0.447 1 1 S 21.759 50.694 21.207 50.694 z" style="stroke: none; stroke-width: 1; stroke-dasharray: none; stroke-linecap: butt; stroke-linejoin: miter; stroke-miterlimit: 10; fill: rgb(0,0,0); fill-rule: nonzero; opacity: 1;" transform=" matrix(1 0 0 1 0 0) " stroke-linecap="round" />
	<path d="M 21.207 43.783 H 4.617 c -0.552 0 -1 -0.448 -1 -1 s 0.448 -1 1 -1 h 16.59 c 0.552 0 1 0.448 1 1 S 21.759 43.783 21.207 43.783 z" style="stroke: none; stroke-width: 1; stroke-dasharray: none; stroke-linecap: butt; stroke-linejoin: miter; stroke-miterlimit: 10; fill: rgb(0,0,0); fill-rule: nonzero; opacity: 1;" transform=" matrix(1 0 0 1 0 0) " stroke-linecap="round" />
	<path d="M 21.207 36.873 H 1 c -0.552 0 -1 -0.448 -1 -1 s 0.448 -1 1 -1 h 20.207 c 0.552 0 1 0.448 1 1 S 21.759 36.873 21.207 36.873 z" style="stroke: none; stroke-width: 1; stroke-dasharray: none; stroke-linecap: butt; stroke-linejoin: miter; stroke-miterlimit: 10; fill: rgb(0,0,0); fill-rule: nonzero; opacity: 1;" transform=" matrix(1 0 0 1 0 0) " stroke-linecap="round" />
	<path d="M 38.883 47.571 H 28.185 c -0.552 0 -1 -0.447 -1 -1 V 35.873 c 0 -0.552 0.448 -1 1 -1 h 10.699 c 0.552 0 1 0.448 1 1 v 10.699 C 39.883 47.124 39.436 47.571 38.883 47.571 z M 29.185 45.571 h 8.699 v -8.699 h -8.699 V 45.571 z" style="stroke: none; stroke-width: 1; stroke-dasharray: none; stroke-linecap: butt; stroke-linejoin: miter; stroke-miterlimit: 10; fill: rgb(0,0,0); fill-rule: nonzero; opacity: 1;" transform=" matrix(1 0 0 1 0 0) " stroke-linecap="round" />
	<path d="M 50.98 47.571 H 38.883 c -0.552 0 -1 -0.447 -1 -1 v -6.782 c 0 -0.552 0.448 -1 1 -1 H 50.98 c 0.553 0 1 0.448 1 1 v 6.782 C 51.98 47.124 51.533 47.571 50.98 47.571 z M 39.883 45.571 H 49.98 v -4.782 H 39.883 V 45.571 z" style="stroke: none; stroke-width: 1; stroke-dasharray: none; stroke-linecap: butt; stroke-linejoin: miter; stroke-miterlimit: 10; fill: rgb(0,0,0); fill-rule: nonzero; opacity: 1;" transform=" matrix(1 0 0 1 0 0) " stroke-linecap="round" />
	<path d="M 66.818 47.571 H 50.98 c -0.553 0 -1 -0.447 -1 -1 V 36.73 c 0 -0.552 0.447 -1 1 -1 h 15.838 c 0.553 0 1 0.448 1 1 v 9.841 C 67.818 47.124 67.371 47.571 66.818 47.571 z M 51.98 45.571 h 13.838 V 37.73 H 51.98 V 45.571 z" style="stroke: none; stroke-width: 1; stroke-dasharray: none; stroke-linecap: butt; stroke-linejoin: miter; stroke-miterlimit: 10; fill: rgb(0,0,0); fill-rule: nonzero; opacity: 1;" transform=" matrix(1 0 0 1 0 0) " stroke-linecap="round" />
	<path d="M 66.818 37.73 H 50.98 c -0.553 0 -1 -0.448 -1 -1 V 26.588 c 0 -0.552 0.447 -1 1 -1 h 15.838 c 0.553 0 1 0.448 1 1 V 36.73 C 67.818 37.283 67.371 37.73 66.818 37.73 z M 51.98 35.73 h 13.838 v -8.143 H 51.98 V 35.73 z" style="stroke: none; stroke-width: 1; stroke-dasharray: none; stroke-linecap: butt; stroke-linejoin: miter; stroke-miterlimit: 10; fill: rgb(0,0,0); fill-rule: nonzero; opacity: 1;" transform=" matrix(1 0 0 1 0 0) " stroke-linecap="round" />
	<path d="M 50.98 40.789 H 38.883 c -0.552 0 -1 -0.448 -1 -1 v -8.13 c 0 -0.552 0.448 -1 1 -1 H 50.98 c 0.553 0 1 0.448 1 1 v 8.13 C 51.98 40.341 51.533 40.789 50.98 40.789 z M 39.883 38.789 H 49.98 v -6.13 H 39.883 V 38.789 z" style="stroke: none; stroke-width: 1; stroke-dasharray: none; stroke-linecap: butt; stroke-linejoin: miter; stroke-miterlimit: 10; fill: rgb(0,0,0); fill-rule: nonzero; opacity: 1;" transform=" matrix(1 0 0 1 0 0) " stroke-linecap="round" />
	<circle cx="80.82" cy="58.81" r="1.5" style="stroke: none; stroke-width: 1; stroke-dasharray: none; stroke-linecap: butt; stroke-linejoin: miter; stroke-miterlimit: 10; fill: rgb(0,0,0); fill-rule: nonzero; opacity: 1;" transform="  matrix(1 0 0 1 0 0) "/>
	<circle cx="42.69" cy="58.81" r="1.5" style="stroke: none; stroke-width: 1; stroke-dasharray: none; stroke-linecap: butt; stroke-linejoin: miter; stroke-miterlimit: 10; fill: rgb(0,0,0); fill-rule: nonzero; opacity: 1;" transform="  matrix(1 0 0 1 0 0) "/>
</g>
</g>
</svg>